<svg xmlns="http://www.w3.org/2000/svg" viewBox="0 0 657.83 70.42"><defs><style>.cls-1{fill:#009adc;}.cls-2{fill:#808992;}</style></defs><g id="Layer_2" data-name="Layer 2"><g id="full-cmyk"><path id="fullLogo" class="cls-1" d="M72.27.17,66.91,2,39.23,11.34a3.17,3.17,0,0,1-2,0L9.53,2,4.17.17A3.16,3.16,0,0,0,0,3.16V55.41a3.16,3.16,0,0,0,2.15,3l2.76.93,31,10.48,1.3.44a3.17,3.17,0,0,0,2,0l1.3-.44,31-10.48,2.76-.93a3.17,3.17,0,0,0,2.15-3V3.16A3.16,3.16,0,0,0,72.27.17Zm-3,38.06V52.06a.63.63,0,0,1-.41.57L38.63,62.84a1.63,1.63,0,0,1-.82,0L7.63,52.63a.63.63,0,0,1-.41-.57V43.79a.3.3,0,0,1,.41-.3L37.81,53.7a1.63,1.63,0,0,0,.82,0l21.52-7.28a.64.64,0,0,0,.41-.57V38.59a.3.3,0,0,0-.41-.3L38.63,45.57a1.63,1.63,0,0,1-.82,0L7.63,35.36a.63.63,0,0,1-.41-.57V9.25A.3.3,0,0,1,7.63,9L37.81,19.16a1.63,1.63,0,0,0,.82,0l12.86-4.35a.29.29,0,0,1,.41.29v8.28a.64.64,0,0,1-.41.57L38.63,28.3a1.43,1.43,0,0,1-.82,0L16.29,21a.3.3,0,0,0-.41.3v7.26a.64.64,0,0,0,.41.57l21.52,7.28a1.63,1.63,0,0,0,.82,0L68.81,26.22a.3.3,0,0,1,.41.3Zm0-20.71a.65.65,0,0,1-.41.58L61,20.75a.3.3,0,0,1-.41-.3V12.18A.65.65,0,0,1,61,11.6L68.81,9a.3.3,0,0,1,.41.3Z"></path><path id="fullLogo-2" data-name="fullLogo" class="cls-2" d="M101.08,49.33l4.61-6.56a17.28,17.28,0,0,0,12.52,5.38c4.67,0,6.86-2.07,6.86-4.37,0-6.86-22.69-2.07-22.69-16.9,0-6.56,5.67-12,15-12,6.26,0,11.46,1.89,15.36,5.5L128,26.64a16.89,16.89,0,0,0-11.46-4.31c-3.55,0-5.56,1.53-5.56,3.9,0,6.2,22.64,2,22.64,16.72,0,7.21-5.2,12.65-15.78,12.65C110.24,55.6,104.8,53.06,101.08,49.33Z"></path><path id="fullLogo-3" data-name="fullLogo" class="cls-2" d="M139,54.89V15.47h27.89v7.39h-19.5v8.27h19.09v7.39H147.35v9h19.5v7.39Z"></path><path id="fullLogo-4" data-name="fullLogo" class="cls-2" d="M200.31,54.89l-18.8-25.71V54.89h-8.39V15.47h8.63L200,40.23V15.47h8.39V54.89Z"></path><path id="fullLogo-5" data-name="fullLogo" class="cls-2" d="M225,54.89v-32H213.49V15.47h31.44v7.39H233.47v32Z"></path><path id="fullLogo-6" data-name="fullLogo" class="cls-2" d="M272.3,54.89l-7.75-14h-6.14v14H250V15.47h18.43c8.22,0,13.3,5.38,13.3,12.71,0,6.91-4.43,10.69-8.69,11.7l8.93,15Zm.82-26.77c0-3.25-2.54-5.26-5.85-5.26h-8.86V33.5h8.86C270.58,33.5,273.12,31.49,273.12,28.12Z"></path><path id="fullLogo-7" data-name="fullLogo" class="cls-2" d="M297.65,54.89V38.75L282.52,15.47h9.58l9.75,15.78,9.75-15.78h9.52L306,38.75V54.89Z"></path><path id="fullLogo-8" data-name="fullLogo" class="cls-2" d="M325.79,54.89V15.47h1.89V54.89Z"></path><path id="fullLogo-9" data-name="fullLogo" class="cls-2" d="M366.27,54.89,339.68,18.54V54.89h-1.9V15.47h1.9l26.59,36v-36h1.89V54.89Z"></path><path id="fullLogo-10" data-name="fullLogo" class="cls-2" d="M388.61,54.89V17.24H375.32V15.47h28.54v1.77H390.5V54.89Z"></path><path id="fullLogo-11" data-name="fullLogo" class="cls-2" d="M411,54.89V15.47h24.12v1.77H412.91V33.73h21.8V35.5h-21.8V53.12h22.22v1.77Z"></path><path id="fullLogo-12" data-name="fullLogo" class="cls-2" d="M467,54.89l-12-17h-9.46v17H443.7V15.47h13.59c6.38,0,11.64,4,11.64,11.17s-5.26,11.23-11.64,11.23l12.18,17Zm-.17-28.25c0-5.44-3.79-9.4-9.58-9.4h-11.7V36.1h11.7C463.08,36.1,466.87,32.08,466.87,26.64Z"></path><path id="fullLogo-13" data-name="fullLogo" class="cls-2" d="M506.58,54.89l-4.37-10.58h-22l-4.38,10.58h-2.19l16.43-39.42h2.25l16.43,39.42ZM491.22,17.66,480.93,42.54H501.5Z"></path><path id="fullLogo-14" data-name="fullLogo" class="cls-2" d="M511.2,35.21c0-12.12,8.74-20.39,19.68-20.39A17.6,17.6,0,0,1,544.59,21l-1.48,1.31a15.74,15.74,0,0,0-12.23-5.74c-9.87,0-17.62,7.51-17.62,18.62S521,53.82,530.88,53.82a15.73,15.73,0,0,0,12.23-5.73l1.54,1.24a17.53,17.53,0,0,1-13.77,6.27C519.94,55.6,511.2,47.32,511.2,35.21Z"></path><path id="fullLogo-15" data-name="fullLogo" class="cls-2" d="M562,54.89V17.24H548.73V15.47h28.54v1.77H563.91V54.89Z"></path><path id="fullLogo-16" data-name="fullLogo" class="cls-2" d="M584.42,54.89V15.47h1.9V54.89Z"></path><path id="fullLogo-17" data-name="fullLogo" class="cls-2" d="M608.89,54.89,592.46,15.47h2.19L610,52.7l15.36-37.23h2.19L611.14,54.89Z"></path><path id="fullLogo-18" data-name="fullLogo" class="cls-2" d="M633.72,54.89V15.47h24.11v1.77H635.61V33.73h21.81V35.5H635.61V53.12h22.22v1.77Z"></path></g></g></svg>
